<svg xmlns="http://www.w3.org/2000/svg" width="87.226" height="123.118" viewBox="0 0 87.226 123.118">
  <g id="Group_2" data-name="Group 2" transform="translate(-892.236 -345.183)">
    <g id="g70" transform="translate(912.764 345.183)">
      <path id="path72" d="M0,0H13.225V5.531H5.531v5.531h7.695v5.531H0Z" fill="#fff"/>
    </g>
    <g id="g74" transform="translate(928.635 345.183)">
      <path id="path76" d="M0,0H13.225V4.809H5.531v.961h7.695V16.833H0V11.783H7.695v-.961H0Z" fill="#fff"/>
    </g>
    <g id="g78" transform="translate(944.506 345.183)">
      <path id="path80" d="M0,0H13.227V4.809h-7.7v.961h7.7V16.833H0V11.783H7.695v-.961H0Z" fill="#fff"/>
    </g>
    <g id="g82" transform="translate(961.194 409.68)">
      <path id="path84" d="M0,0-.267,2.932-2.832,31.68-3,33.525-25.345,39.72h0l-.051.013-22.368-6.209L-49.293,16.38h10.961l.777,8.708,12.161,3.284.011,0h0L-13.2,25.083l1.268-14.163H-49.781L-50.76,0h39.771L-10-11.181H-51.735l-.992-10.92h54.7ZM-68.958-40.3l7.939,89.034L-25.4,58.621l35.72-9.9L18.268-40.3Z" fill="#fff"/>
    </g>
  </g>
</svg>
