<svg xmlns="http://www.w3.org/2000/svg" width="84.813" height="119.712" viewBox="0 0 84.813 119.712">
  <g id="Group_1" data-name="Group 1" transform="translate(-129.132 1107.112)">
    <g id="g48" transform="translate(137.023 -1107.112)">
      <path id="path50" d="M0,0H5.4V5.331h4.936V0h5.4V16.143h-5.4V10.737H5.4v5.405H0Z" fill="#fff"/>
    </g>
    <g id="g52" transform="translate(159.846 -1101.758)">
      <path id="path54" d="M0,0H-4.751V-5.353h14.9V0H5.4V10.789H0Z" fill="#fff"/>
    </g>
    <g id="g56" transform="translate(172.359 -1107.112)">
      <path id="path58" d="M0,0H5.627l3.46,5.672L12.544,0h5.628V16.143H12.8v-8l-3.713,5.74H8.995L5.279,8.141v8H0Z" fill="#fff"/>
    </g>
    <g id="g60" transform="translate(193.217 -1107.112)">
      <path id="path62" d="M0,0H5.4V10.807h7.588v5.336H0Z" fill="#fff"/>
    </g>
    <g id="g64" transform="translate(197.845 -1063.041)">
      <path id="path66" d="M0,0-.484,5.383-.7,7.769H-41.328l.971,10.872H-1.663l-.259,2.852-2.5,27.952-.16,1.795-21.729,6.023h0l-.049.013L-48.105,51.24l-1.487-16.672h10.657l.756,8.468,11.825,3.193.009,0h0l11.843-3.2,1.232-13.769h-36.8L-52.677,0l-.253-2.848H.253ZM-68.713-20.545l7.719,86.572,34.636,9.615L8.372,66.013,16.1-20.545Z" fill="#fff"/>
    </g>
  </g>
</svg>
