<svg xmlns="http://www.w3.org/2000/svg" width="86.776" height="122.148" viewBox="0 0 86.776 122.148">
  <g id="Group_3" data-name="Group 3" transform="translate(-1221.284 -335.555)">
    <g id="g136" transform="translate(1286.877 432.688)">
      <path id="path138" d="M0,0-22.205,6.305-44.411,0l-1.567-16.9h10.967l.724,8.455L-22.205-4.96l11.9-3.429,1.217-13.972h-37.3l-.064.208L-43.4-55.184H.509l2.412,17.3H-8.143l-.405-6.329H-34.495L-35-33.16H3.056ZM-22.205-73.193H-65.593l8.131,88.213,35.257,9.995L13.039,15.02l8.144-88.213Z" fill="#ebeaea"/>
    </g>
    <g id="g140" transform="translate(1256.228 346.483)">
      <path id="path142" d="M0,0H-7.716V5.541H5.529V-10.928H0Z" fill="#ebeaea"/>
    </g>
    <g id="g144" transform="translate(1280.833 335.639)">
      <path id="path146" d="M0,0H-13.46V5.768c1.8,1.8,2.74,2.661,5.345,5.267-1.524,0-5.345.005-5.345.005V16.3H0V11.039L-5.376,5.768H0Z" fill="#ebeaea"/>
    </g>
  </g>
</svg>
