<svg xmlns="http://www.w3.org/2000/svg" width="166.348" height="120.935" viewBox="0 0 166.348 120.935">
  <g id="Group_4" data-name="Group 4" transform="translate(-161.492 -346.275)">
    <g id="g88" transform="translate(219.926 355.601)">
      <path id="path90" d="M0,0-4.652,5.908c-5.961,8.567-5.221,19.719-.667,28.825.108.216.227.431.339.645.072.137.131.273.2.407l.136.239c.077.144.159.277.237.419.144.251.293.5.441.747.083.136.155.271.239.407.165.265.337.531.508.793l.215.328c.24.355.487.7.736,1.052l.012.035.124.169c.217.3.443.591.668.883l.249.316c.2.255.413.507.623.759l.227.284c.28.329.568.652.86.973l.021.021.035.035c.284.311.577.613.871.917l.272.283c.231.229.468.453.7.679l.284.271c.313.3.625.589.951.872l.023.012.157.147c.285.245.579.484.872.724l.351.284c.237.189.48.38.724.565l.385.295c.268.2.543.4.815.588l.295.2.079.056c.26.177.528.349.792.521l.34.227c.405.256.817.512,1.233.757l.34.192c.307.176.605.353.916.521.169.091.351.172.521.26.22.116.432.227.656.34l.159.079.26.125c.348.165.7.329,1.053.485l.227.1q.6.266,1.221.509l.295.113c.381.147.767.295,1.153.431l.148.056c.427.148.857.284,1.291.419l.305.091a12.354,12.354,0,0,0,1.324.373C48.4,60,56.78,37.416,56.78,37.416,49.748,46.58,37.261,49,25.431,46.311c-.449-.1-.888-.245-1.324-.373l-.329-.1c-.425-.131-.847-.263-1.267-.408l-.171-.068c-.376-.132-.751-.275-1.12-.419l-.317-.124c-.407-.161-.812-.324-1.211-.5l-.248-.1c-.344-.156-.679-.313-1.02-.475l-.293-.148c-.265-.128-.52-.26-.781-.4-.177-.091-.357-.188-.532-.283-.319-.173-.637-.351-.951-.532l-.316-.169c-.419-.245-.828-.5-1.235-.759l-.328-.227c-.293-.191-.592-.379-.883-.577l-.272-.2c-.283-.2-.564-.395-.836-.6l-.363-.272c-.251-.192-.5-.389-.747-.589l-.34-.271c-.316-.259-.62-.515-.928-.781l-.1-.079c-.332-.292-.663-.6-.985-.895l-.272-.271c-.237-.228-.469-.456-.7-.692l-.283-.271q-.44-.452-.861-.917l-.044-.045c-.3-.325-.587-.659-.872-.995L5.275,33.5c-.215-.257-.428-.52-.635-.781l-.227-.283c-.249-.321-.5-.648-.735-.973C-2.889,22.5-5.251,10.145,0,0M17.372-6.281l-3.52,4.968C9.541,4.891,9.777,13.2,13.139,19.76a27.873,27.873,0,0,0,1.9,3.18,15.2,15.2,0,0,0,2.229,2.773q.468.514.961,1.007l.261.249c.32.312.645.617.984.917l.033.033.012.012c.373.327.761.639,1.155.951l.26.2c.395.3.8.6,1.211.884l.035.033c.18.125.371.243.553.361l.261.171c.295.188.592.368.893.543l.125.08c.261.148.525.3.792.441l.283.147c.185.095.368.191.555.283l.079.045c.38.188.765.361,1.155.532l.26.1c.313.131.621.264.94.384.135.051.271.1.407.147.288.108.58.208.872.307l.4.124a9.376,9.376,0,0,0,1.256.361c22.26,3.688,27.4-13.444,27.4-13.444C53.777,27.26,44.8,30.44,35.231,27.953c-.425-.111-.851-.229-1.267-.361l-.373-.124c-.3-.1-.591-.2-.883-.307-.133-.049-.264-.1-.4-.147-.319-.121-.639-.252-.949-.384l-.261-.1c-.389-.172-.773-.355-1.155-.543-.2-.1-.395-.2-.588-.295l-.328-.169c-.249-.136-.5-.277-.747-.419l-.171-.1c-.3-.177-.6-.356-.893-.543l-.272-.181c-.193-.127-.388-.256-.577-.385-.412-.283-.807-.583-1.2-.883l-.271-.2A26.854,26.854,0,0,1,15.8,9.847,20.1,20.1,0,0,1,17.372-6.281M31.316-9.325l-1.9,2.613a12.973,12.973,0,0,0-1.02,12.517A17.615,17.615,0,0,0,38.5,15.267c.184.069.371.131.555.193l.249.079a7.538,7.538,0,0,0,.792.227c12.292,2.373,15.625-6.3,16.513-7.583-2.921,4.205-7.832,5.208-13.853,3.745a15.021,15.021,0,0,1-1.449-.441,17.555,17.555,0,0,1-1.731-.724,17.9,17.9,0,0,1-3.033-1.856C31.156,4.819,27.8-2.973,31.316-9.325" fill="#fff"/>
    </g>
    <g id="g92" transform="translate(174.181 436.501)">
      <path id="path94" d="M0,0A.806.806,0,0,0-.747.6l-.947,4.191-.948,4.191c-.075.329-.193.873-.263,1.2l-.911,4.279-.909,4.279c-.071.329-.217.865-.327,1.185,0,0-1.257,3.744-3.375,3.7-.089,0-.176,0-.264,0-1.023-.019-1.832-.037-1.832-.037a.8.8,0,0,0-.752.589l-.7,2.936-.7,2.936a.475.475,0,0,0,.471.609c1.2.013,3.885.044,5.513.044,5.287,0,8.076-2.933,9.863-11.361L5.264,9.673,7.227.6A.479.479,0,0,0,6.737,0ZM89.354-2.34c3.793,0,4.529,1.849,4.272,3.933a.742.742,0,0,1-.715.633H83.694a.4.4,0,0,1-.439-.483l.007-.019.007-.032s.012-.065.037-.156C84.186-.8,85.984-2.34,89.354-2.34m19.064-6.224a.8.8,0,0,0-.745.6l-.245,1.173-.295,1.393-.081.388L104.517,6.863l-2.409,11.275a2.657,2.657,0,0,0-.051.9c.041.165.685.295,1.024.295h5.081a3.173,3.173,0,0,0,.947-.132c.185-.075.46-.741.528-1.072l.9-4.461.9-4.467V9.2l.119-.595,1.1-5.132.967-4.529a.79.79,0,0,1,.74-.6l15.979-.007a.467.467,0,0,0,.471-.6l-.276-1.153-.276-1.18-.144-.6c-.548-2.127-2.152-3.349-5.64-3.349l-5.433-.007-5-.007ZM50.772-8.633a.792.792,0,0,0-.74.6L48.689-1.656,47.34,4.717v.007l-.125.6c-1.548,7.065-1.135,13.8,7.277,14.015.137,0,.245,0,.245,0h13.2a.79.79,0,0,0,.74-.6L71.525,5.351,74.373-8.031a.481.481,0,0,0-.489-.6H67.8a.8.8,0,0,0-.747.6L64.893,1.964l-2.164,10a.8.8,0,0,1-.74.6H57.679c-4.263,0-3.772-2.949-2.9-6.988l.025-.12.095-.513.019-.095.195-1.036L55.32,2.7c.064-.335.164-.828.227-1.136l.984-4.8.979-4.8a.482.482,0,0,0-.489-.6ZM2-8.708a.814.814,0,0,0-.753.6l-.633,2.8-.635,2.8a.471.471,0,0,0,.477.6H7.189a.8.8,0,0,0,.747-.6l.615-2.8.616-2.8a.477.477,0,0,0-.484-.6Zm26.787-.1c6.605-.191,7.9,4.721,6.224,10.364l-.169.589v.007L33.513,6.857l-1.329,4.7a.871.871,0,0,1-.785.6H24.373c-5.335,0-6.639-4.173-5.34-10.327,1.3-6.293,3.848-10.207,9.1-10.6.224-.017.44-.032.652-.037m62.14-.232c-11.831,0-14.632,7.181-16.2,14.429-1.573,7.387-1.44,14.291,10.8,14.291h1.945l1.468-.007h.024c3.235-.012,6.472-.039,7.787-.049a.8.8,0,0,0,.733-.6l.495-2.421.1-.471.589-2.892a.486.486,0,0,0-.5-.6h-11c-4.377,0-5.68-1.16-5.2-4.58H99.573a.727.727,0,0,0,.64-.457l.044-.151h-.007c2.613-9.853,1.863-16.487-9.328-16.487m62.391-3.671-1.932.013c-.339,0-.892.005-1.231.005h-5.112a1.305,1.305,0,0,0-.96.508L132.766,4.379c-.191.28-.407.241-.483-.088L131.456.639A.807.807,0,0,0,130.7.044h-7.271a.438.438,0,0,0-.445.589l3.256,11.412a2.7,2.7,0,0,1,.019,1.185l-1.424,5.52a.456.456,0,0,0,.464.6h7.184a.839.839,0,0,0,.771-.6l1.419-5.52a3.638,3.638,0,0,1,.52-1.085l18.363-24.367c.2-.269.093-.491-.244-.489M29.775-16.155c-11.969,0-17.169,8.619-19.153,17.987-1.983,9.436.616,17.709,12.516,17.64l9.391-.031,8.771-.031a.851.851,0,0,0,.772-.6L43.6,12.98a.456.456,0,0,0-.464-.6l-1.463-.007-1.468-.012a.373.373,0,0,1-.413-.433l.037-.137S43.143,3.747,43.9-.9c1.025-6.224-2.085-15.251-14.121-15.251" fill="#fff"/>
    </g>
  </g>
</svg>
