<svg xmlns="http://www.w3.org/2000/svg" width="164.34" height="100.65" viewBox="0 0 164.34 100.65">
  <g id="Group_5" data-name="Group 5" transform="translate(-1186.478 -838.911)">
    <g id="g362" transform="translate(1267.705 939.56)">
      <path id="path364" d="M0,0A3.114,3.114,0,0,1-1.557-.416L-6.512-3.349c-.739-.413-.379-.56-.135-.644a9.981,9.981,0,0,0,2.24-1.023.379.379,0,0,1,.369.027L-.232-2.731a.5.5,0,0,0,.461,0L15.071-11.3a.469.469,0,0,0,.227-.4V-28.824a.483.483,0,0,0-.229-.409L.232-37.793a.466.466,0,0,0-.457,0l-14.832,8.56a.474.474,0,0,0-.236.405V-11.7a.455.455,0,0,0,.231.4L-11-8.957c2.207,1.1,3.556-.2,3.556-1.5v-16.9a.424.424,0,0,1,.431-.428h1.879a.426.426,0,0,1,.428.428v16.909c0,2.943-1.6,4.633-4.395,4.633a6.37,6.37,0,0,1-3.423-.928l-3.893-2.244A3.139,3.139,0,0,1-17.972-11.7V-28.828a3.118,3.118,0,0,1,1.556-2.7L-1.559-40.1a3.252,3.252,0,0,1,3.121,0L16.4-31.528a3.129,3.129,0,0,1,1.556,2.7V-11.7a3.138,3.138,0,0,1-1.556,2.7L1.563-.423A3.128,3.128,0,0,1,0-.008" fill="#fff"/>
    </g>
    <g id="g366" transform="translate(1293.67 909.816)">
      <path id="path368" d="M0,0A2.869,2.869,0,0,1-2.861,2.861,2.867,2.867,0,0,1-5.721,0a2.866,2.866,0,0,1,2.86-2.861A2.859,2.859,0,0,1,0,0M-5.257-.008A2.4,2.4,0,0,0-2.864,2.4,2.418,2.418,0,0,0-.461-.008,2.4,2.4,0,0,0-2.868-2.4,2.386,2.386,0,0,0-5.26-.012m1.329-1.593h1.1c.379,0,1.123,0,1.123.848a.736.736,0,0,1-.605.787c.441.029.471.32.531.728a3.2,3.2,0,0,0,.167.847h-.68c-.017-.148-.123-.965-.123-1.011C-2.46.413-2.524.323-2.751.323h-.559V1.608h-.621ZM-3.325-.2h.5a.432.432,0,0,0,.487-.453c0-.439-.3-.439-.467-.439h-.513ZM-21.381,17.944c-6.493,0-7.856-2.98-7.856-5.48a.428.428,0,0,1,.431-.428h1.917a.429.429,0,0,1,.423.364c.291,1.953,1.152,2.939,5.079,2.939,3.129,0,4.459-.707,4.459-2.367,0-.953-.379-1.664-5.239-2.139-4.064-.4-6.576-1.3-6.576-4.548,0-2.993,2.527-4.777,6.759-4.777,4.751,0,7.107,1.649,7.4,5.193a.435.435,0,0,1-.113.331.448.448,0,0,1-.317.137h-1.928a.427.427,0,0,1-.416-.333c-.464-2.055-1.585-2.712-4.636-2.712-3.415,0-3.812,1.188-3.812,2.079,0,1.083.468,1.4,5.075,2.007C-16.168,8.815-14,9.669-14,12.876c0,3.232-2.7,5.087-7.4,5.087" fill="#fff"/>
    </g>
    <g id="g370" transform="translate(1349.873 878.842)">
      <path id="path372" d="M0,0A1.9,1.9,0,0,0,.944-1.641V-6.047A1.9,1.9,0,0,0,0-7.691l-15.64-9.079a1.894,1.894,0,0,0-1.905,0L-33.284-7.687a1.9,1.9,0,0,0-.952,1.645V12.125a1.912,1.912,0,0,0,.959,1.653l15.637,8.913a1.9,1.9,0,0,0,1.864.009l9.459-5.256a.952.952,0,0,0,.487-.825.953.953,0,0,0-.479-.828L-22.143,6.705a.944.944,0,0,1-.48-.821V.185a.945.945,0,0,1,.476-.824L-17.22-3.48a.939.939,0,0,1,.947,0l4.929,2.841a.947.947,0,0,1,.476.823V4.663a.956.956,0,0,0,.476.825.956.956,0,0,0,.951,0ZM-52.417-39.811a.954.954,0,0,0-.944.009.955.955,0,0,0-.468.823v24.147a.667.667,0,0,1-.333.576.67.67,0,0,1-.664,0l-3.941-2.271a1.9,1.9,0,0,0-1.9,0L-76.409-7.443A1.9,1.9,0,0,0-77.36-5.8V12.373a1.908,1.908,0,0,0,.951,1.647l15.741,9.089a1.906,1.906,0,0,0,1.9,0l15.74-9.093a1.908,1.908,0,0,0,.951-1.647V-32.923a1.9,1.9,0,0,0-.976-1.661ZM-53.876,6.405a.47.47,0,0,1-.237.409l-5.405,3.116a.472.472,0,0,1-.475,0L-65.4,6.815a.467.467,0,0,1-.237-.409V.165A.482.482,0,0,1-65.4-.248l5.4-3.12a.48.48,0,0,1,.479,0l5.405,3.12a.478.478,0,0,1,.239.413Zm-74.252-12.7a1.9,1.9,0,0,0-.949-1.651L-144.812-17a1.856,1.856,0,0,0-.865-.251h-.163a1.881,1.881,0,0,0-.869.251l-15.735,9.053a1.915,1.915,0,0,0-.952,1.652l.035,24.385a.939.939,0,0,0,.472.823.9.9,0,0,0,.944,0l9.355-5.357a1.923,1.923,0,0,0,.951-1.649V.519a1.9,1.9,0,0,1,.948-1.647l3.984-2.293a1.888,1.888,0,0,1,.951-.256,1.852,1.852,0,0,1,.945.256l3.98,2.292a1.9,1.9,0,0,1,.951,1.647V11.908a1.925,1.925,0,0,0,.953,1.649l9.348,5.353a.928.928,0,0,0,.951,0,.952.952,0,0,0,.472-.821Z" fill="#fff"/>
    </g>
    <g id="g374" transform="translate(1333.048 877.993)">
      <path id="path376" d="M0,0A.356.356,0,0,1,.364,0L3.385,1.743a.363.363,0,0,1,.181.315V5.545a.364.364,0,0,1-.181.316L.364,7.6A.356.356,0,0,1,0,7.6L-3.019,5.861A.361.361,0,0,1-3.2,5.545V2.057a.357.357,0,0,1,.18-.315Z" fill="#fff"/>
    </g>
    <g id="g378" transform="translate(1246.187 862.162)">
      <path id="path380" d="M0,0-15.652,9.033a1.889,1.889,0,0,0-.945,1.637v18.08a1.889,1.889,0,0,0,.945,1.637L0,39.428a1.9,1.9,0,0,0,1.892,0l15.649-9.04a1.892,1.892,0,0,0,.943-1.637V10.671a1.888,1.888,0,0,0-.947-1.637L1.889,0A1.907,1.907,0,0,0-.005,0" fill="#fff"/>
    </g>
  </g>
</svg>
